<mxfile host="app.diagrams.net" modified="2021-01-05T07:12:48.381Z" agent="5.0 (Windows NT 10.0; Win64; x64) AppleWebKit/537.36 (KHTML, like Gecko) Chrome/87.0.4280.88 Safari/537.36" etag="Jp04fUVqIMSsVA4yGaib" version="14.1.1" type="github">
  <diagram id="SmFM2coi8A-Dmw9nVq4e" name="Page-1">
    <mxGraphModel dx="1422" dy="772" grid="0" gridSize="10" guides="1" tooltips="1" connect="1" arrows="1" fold="1" page="1" pageScale="1" pageWidth="2339" pageHeight="3300" math="0" shadow="0">
      <root>
        <mxCell id="0" />
        <mxCell id="1" parent="0" />
        <mxCell id="WCQYUByF5xgC30FzktKd-3" value="查询订单列表" style="rounded=1;whiteSpace=wrap;html=1;strokeWidth=2;fillWeight=4;hachureGap=8;hachureAngle=45;fillColor=#eeeeee;sketch=1;strokeColor=#36393d;" vertex="1" parent="1">
          <mxGeometry x="91" y="326" width="120" height="60" as="geometry" />
        </mxCell>
        <mxCell id="WCQYUByF5xgC30FzktKd-6" value="查询订单列表" style="rounded=1;whiteSpace=wrap;html=1;strokeWidth=2;fillWeight=4;hachureGap=8;hachureAngle=45;fillColor=#eeeeee;sketch=1;strokeColor=#36393d;" vertex="1" parent="1">
          <mxGeometry x="269" y="280" width="120" height="60" as="geometry" />
        </mxCell>
      </root>
    </mxGraphModel>
  </diagram>
</mxfile>
